<?xml version="1.0" encoding="UTF-8" standalone="no"?>
<!-- Created with Inkscape (http://www.inkscape.org/) -->

<svg
   width="171.99985mm"
   height="171.99983mm"
   viewBox="0 0 171.99985 171.99983"
   version="1.1"
   id="svg1"
   xml:space="preserve"
   inkscape:version="1.4.2 (2aeb623e1d, 2025-05-12)"
   sodipodi:docname="logo.svg"
   xmlns:inkscape="http://www.inkscape.org/namespaces/inkscape"
   xmlns:sodipodi="http://sodipodi.sourceforge.net/DTD/sodipodi-0.dtd"
   xmlns="http://www.w3.org/2000/svg"
   xmlns:svg="http://www.w3.org/2000/svg"><sodipodi:namedview
     id="namedview1"
     pagecolor="#ffffff"
     bordercolor="#666666"
     borderopacity="1.0"
     inkscape:showpageshadow="2"
     inkscape:pageopacity="0.0"
     inkscape:pagecheckerboard="0"
     inkscape:deskcolor="#d1d1d1"
     inkscape:document-units="mm"
     inkscape:zoom="0.37151321"
     inkscape:cx="173.61429"
     inkscape:cy="928.63455"
     inkscape:window-width="1920"
     inkscape:window-height="1011"
     inkscape:window-x="0"
     inkscape:window-y="0"
     inkscape:window-maximized="1"
     inkscape:current-layer="g17" /><defs
     id="defs1" /><g
     inkscape:label="Layer 1"
     inkscape:groupmode="layer"
     id="layer1"
     transform="translate(-7.006498,-79.610147)"><g
       id="g17"
       style="fill:#6644f4;fill-opacity:0.648594"
       transform="translate(-25.693832,2.04382)"><g
         id="g29"
         style="fill:#0f603f;fill-opacity:1"><path
           id="path19"
           style="fill:#0f603f;fill-opacity:1;stroke:none;stroke-width:0;stroke-dasharray:none;stroke-opacity:1"
           d="m 118.70025,77.566327 a 85.999908,85.999908 0 0 0 -85.99992,85.999923 85.999908,85.999908 0 0 0 85.99992,85.99991 85.999908,85.999908 0 0 0 85.99992,-85.99991 85.999908,85.999908 0 0 0 -85.99992,-85.999923 z m 0,8.000028 a 78,78 0 0 1 77.99989,77.999895 78,78 0 0 1 -77.99989,77.99989 78,78 0 0 1 -77.999892,-77.99989 78,78 0 0 1 77.999892,-77.999895 z" /><path
           id="path20"
           style="fill:#0f603f;fill-opacity:1;stroke:none;stroke-width:0;stroke-dasharray:none;stroke-opacity:1"
           d="m 118.59535,92.066217 a 71.5,71.5 0 0 0 -71.500033,71.500033 71.5,71.5 0 0 0 71.500033,71.50002 71.5,71.5 0 0 0 71.37962,-67.35092 h -6.80682 -1.20871 -75.6729 -8.000032 v 31.25287 h -8.403622 v -71.15845 h 8.403622 v 30.17284 h 8.000032 75.56283 1.31878 6.70863 A 71.5,71.5 0 0 0 118.59535,92.066217 Z m 0,8.000033 a 63.5,63.5 0 0 1 62.03032,49.91633 H 106.28654 V 119.80974 H 81.882858 v 8.00003 79.15848 h 8.000028 16.403654 v -8.00003 -23.25285 h 74.63575 a 63.5,63.5 0 0 1 -62.32694,51.35088 63.5,63.5 0 0 1 -63.500005,-63.5 63.5,63.5 0 0 1 63.500005,-63.5 z" /><path
           id="rect26"
           style="fill:#0f603f;fill-opacity:1;stroke:none;stroke-width:0;stroke-dasharray:none;stroke-opacity:1"
           d="m 119.80974,-130.64526 h 8.00003 v -0.0486 h 18.74046 v -8.00003 h -18.74046 v -8.35505 h 18.74046 v -8.00002 h -18.74046 -8.00003 v 8.00002 8.35505 8.00003 z m 60.51052,-0.0486 h 18.66036 v 0.0486 h 8.00003 v -24.40367 h -8.00003 -18.66036 v 8.00002 h 18.66036 v 8.35505 h -18.66036 z"
           transform="rotate(90)" /></g></g></g></svg>
